<svg width="1341" height="802" viewBox="0 0 1341 802" fill="none" xmlns="http://www.w3.org/2000/svg">
<path d="M621.478 132.174H380.51C325.638 132.174 281.156 176.636 281.156 231.484V453.749C281.156 508.597 325.638 553.059 380.51 553.059H621.478C676.349 553.059 720.832 508.597 720.832 453.749V231.484C720.832 176.636 676.349 132.174 621.478 132.174Z" fill="#FFFAAB"/>
<path d="M621.479 132.03H495.6C440.729 132.03 396.246 176.492 396.246 231.34V350.781C396.246 405.628 440.729 450.091 495.6 450.091H621.479C676.351 450.091 720.833 405.628 720.833 350.781V231.34C720.833 176.492 676.351 132.03 621.479 132.03Z" fill="#F2F2F2"/>
<path d="M603.946 140.487C601.249 142.492 599.451 145.88 597.94 149.088C580.182 186.691 562.874 224.501 545.314 262.203C536.682 280.723 527.963 299.204 519.158 317.645C512.918 330.668 504.601 343.664 499.197 356.929C497.399 361.423 498.559 367.965 503.288 368.981C507.676 368.981 527.322 319.066 530.181 313.125C539.005 294.797 547.804 276.46 556.58 258.113C574.751 220.142 595.827 181.847 610.222 142.267C610.5 141.767 610.639 141.203 610.627 140.631C610.456 139.085 608.343 138.654 606.841 139.067C605.799 139.362 604.818 139.844 603.946 140.487Z" fill="#5F3000"/>
<path d="M690.551 176.957C687.97 179.141 686.415 182.673 685.156 185.945C669.979 224.662 655.269 263.559 640.289 302.358C632.934 321.417 625.486 340.446 617.946 359.445C612.551 372.854 605.178 386.407 600.682 399.987C599.163 404.579 600.79 411.032 605.583 411.733C609.961 411.437 626.191 360.308 628.636 354.214C636.195 335.335 643.736 316.444 651.259 297.54C666.814 258.428 685.255 218.802 696.953 178.342C697.188 177.821 697.287 177.249 697.24 176.679C696.962 175.151 694.831 174.881 693.356 175.376C692.332 175.726 691.381 176.262 690.551 176.957Z" fill="#5F3000"/>
<path d="M605.672 154.238L685.848 183.159L691.216 175.952L610.159 139.409L605.672 154.238Z" fill="#5F3000"/>
<path d="M685.298 183.303C684.03 180.364 679.669 179.169 671.316 176.113L635.666 163.208C628.868 160.754 617.557 153.915 610.427 154.058C604.789 154.166 607.136 154.058 604.133 157.276C597.533 164.169 593.73 179.555 589.747 188.138L542.084 290.144C536.197 302.763 530.323 315.381 524.461 327.999C521.674 333.991 518.883 339.964 516.09 345.92C512.763 353.02 508.996 356.309 513.59 361.459C520.073 368.73 543.19 372.909 552.496 376.522L593.361 392.366C596.239 393.481 599.332 394.604 602.353 393.894C607.1 392.753 609.546 387.603 611.281 383.046C626.486 343.152 640.242 302.933 656.013 263.191C664.795 241.023 673.579 218.878 682.367 196.757C685.208 189.594 686.377 185.793 685.298 183.303Z" fill="#CE1C24"/>
<path d="M332.299 262.833C332.829 261.841 333.501 260.933 334.295 260.136C345.085 249.594 370.26 249.352 384.053 243.537C396.474 238.448 408.553 232.564 420.216 225.922C428.192 221.302 435.295 214.885 442.83 209.592C449.123 205.206 449.402 204.595 456.73 206.895C473.76 212.288 489.522 222.174 506.551 228.088C525.158 234.556 544.229 239.6 563.601 243.177C572.979 244.903 573.285 245.172 576.513 252.83C585.657 274.57 596.15 297.443 607.794 318.572C616.569 334.497 636.467 354.521 627.808 374.176C624.311 382.094 619.653 389.662 616.578 397.741C611.255 411.743 606.643 425.961 602.444 440.341C598.676 453.283 597.597 474.834 590.476 485.988C584.38 495.532 567.333 496.143 556.822 500.709C529.173 512.707 503.638 528.012 478.408 544.378C468.904 550.544 452.217 535.831 442.785 532.192C413.446 520.868 382.839 513.318 352.125 506.883C341.722 504.69 342.504 483.939 339.339 475.302C333.953 460.898 327.316 446.992 319.504 433.744C312.311 421.351 297.278 406.953 292.944 393.67C289.464 382.993 304.705 368.353 309.614 357.307C316.888 340.753 322.357 323.464 325.924 305.738C328.037 295.51 326.868 272.692 332.299 262.833Z" fill="#AEFFFF"/>
<path d="M354.688 280.663L354.823 280.474C361.315 271.172 373.939 269.213 384.989 266.634C399.623 263.206 413.596 257.401 426.349 249.45C436.779 242.943 444.332 230.658 457.972 233.165C476.853 236.652 494.593 244.426 512.324 251.589C528.077 257.961 548.793 257.341 557.739 273.815C566.416 289.803 574.23 306.232 582.52 322.427C589.991 337.014 601.842 353.505 599.756 371.282C597.67 389.059 587.914 404.625 581.557 421.117C576.684 433.78 578.204 447.773 572.701 460.203C566.982 473.1 553.585 477.521 541.384 481.943C523.905 488.279 508.224 498.345 492.112 507.431C473.41 517.973 454.042 510.127 435.556 503.639C417.07 497.15 395.931 496.026 379.288 484.675C354.58 467.824 341.759 430.23 327.678 405.021C324.864 399.988 321.996 394.793 321.249 389.068C319.766 377.672 330.762 369.584 335.015 359.868C340.967 346.253 344.411 332.106 347.252 317.583C349.491 306.115 347.9 290.603 354.688 280.663Z" fill="#FFAB28"/>
<path d="M396.677 322.13L396.758 322.031C400.66 316.882 408.257 315.794 414.902 314.365C423.632 312.49 432.021 309.28 439.772 304.848C446.066 301.253 450.562 294.44 458.798 295.86C470.181 297.784 480.826 302.089 491.49 306.061C500.967 309.584 513.429 309.242 518.815 318.365C524.03 327.226 528.705 336.339 533.723 345.327C538.218 353.415 545.348 362.537 544.09 372.378C542.831 382.219 536.959 390.847 533.138 399.987C530.207 406.997 531.124 414.745 527.806 421.629C524.372 428.774 516.306 431.218 508.924 433.663C498.414 437.177 488.982 442.758 479.253 447.782C468.005 453.624 456.352 449.283 445.23 445.688C434.108 442.093 421.394 441.464 411.377 435.182C396.515 425.853 388.8 405.029 380.33 391.072C378.64 388.277 376.914 385.401 376.464 382.237C375.565 375.946 382.192 371.453 384.745 366.06C388.342 358.52 390.401 350.683 392.109 342.639C393.548 336.231 392.595 327.639 396.677 322.13Z" fill="#FFFA1B"/>
<path d="M473.212 372.936C473.518 383.091 462.674 388.61 454.133 383.433C440.646 375.264 451.543 354.063 466.586 361.953C468.574 363.022 470.238 364.605 471.404 366.537C472.57 368.47 473.194 370.68 473.212 372.936Z" fill="#FF2712"/>
</svg>
